<svg width="32" height="32" viewBox="0 0 32 32" fill="none" xmlns="http://www.w3.org/2000/svg">
<g id="eos-icons:daemon">
<path id="Vector" d="M26.9747 12.488C27.0893 12.3049 27.196 12.1156 27.2947 11.92C27.3938 11.7225 27.4828 11.52 27.5613 11.3133C28.1909 9.65496 28.1411 7.8152 27.4227 6.19333C27.0712 5.39104 26.5633 4.66687 25.9287 4.06316C25.2941 3.45945 24.5455 2.98833 23.7267 2.67733L23.7053 2.672L23.6853 2.66667C24.2405 3.54716 24.5833 4.54475 24.6865 5.58054C24.7897 6.61633 24.6505 7.66193 24.28 8.63467L24.2773 8.63867L24.276 8.644C23.1911 7.60552 21.9218 6.77889 20.5333 6.20667C17.6265 5.01598 14.3681 5.01598 11.4613 6.20667C10.0733 6.77903 8.80443 7.60565 7.71999 8.644L7.71732 8.63867L7.71599 8.63467C7.34186 7.64414 7.21553 6.57718 7.34799 5.52667C7.47536 4.50914 7.82643 3.53244 8.37599 2.66667L8.35599 2.672L8.33599 2.67733C6.67758 3.31054 5.33679 4.57374 4.60596 6.1915C3.87513 7.80926 3.81356 9.65036 4.43466 11.3133C4.51313 11.52 4.60213 11.7225 4.70132 11.92C4.7991 12.1156 4.90577 12.3049 5.02132 12.488C4.21435 14.3147 3.87604 16.314 4.03706 18.3045C4.19808 20.2951 4.85334 22.214 5.94344 23.8873C7.03354 25.5606 8.52401 26.9353 10.2797 27.887C12.0355 28.8386 14.0009 29.337 15.998 29.337C17.995 29.337 19.9605 28.8386 21.7162 27.887C23.472 26.9353 24.9624 25.5606 26.0525 23.8873C27.1426 22.214 27.7979 20.2951 27.9589 18.3045C28.1199 16.314 27.7816 14.3147 26.9747 12.488ZM20.6627 11.984C21.1246 11.9845 21.5722 12.1451 21.9291 12.4385C22.2859 12.7318 22.5301 13.1399 22.6199 13.593C22.7097 14.0462 22.6396 14.5165 22.4216 14.9238C22.2036 15.3311 21.8512 15.6503 21.4243 15.8269C20.9974 16.0036 20.5225 16.0267 20.0804 15.8925C19.6383 15.7583 19.2565 15.475 18.9998 15.0909C18.7432 14.7067 18.6277 14.2455 18.6729 13.7857C18.7182 13.3259 18.9214 12.8961 19.248 12.5693C19.4333 12.3832 19.6535 12.2356 19.8961 12.1349C20.1386 12.0342 20.3987 11.9825 20.6613 11.9827L20.6627 11.984ZM11.3333 11.984C11.7954 11.9842 12.2431 12.1445 12.6002 12.4377C12.9572 12.7309 13.2016 13.1389 13.2917 13.5921C13.3817 14.0452 13.3119 14.5156 13.094 14.9231C12.8762 15.3305 12.5238 15.6499 12.0969 15.8267C11.67 16.0035 11.195 16.0268 10.7529 15.8927C10.3107 15.7586 9.92875 15.4753 9.67202 15.0911C9.41529 14.707 9.29968 14.2457 9.3449 13.7859C9.39011 13.3261 9.59335 12.8961 9.91999 12.5693C10.1053 12.3832 10.3255 12.2356 10.5681 12.1349C10.8106 12.0342 11.0707 11.9838 11.3333 11.984ZM15.9973 24.6933C14.5053 24.6951 13.0491 24.236 11.828 23.3787C10.6374 22.5442 9.7192 21.3774 9.18799 20.024H22.808C22.2768 21.3774 21.3585 22.5442 20.168 23.3787C18.9465 24.2362 17.4898 24.6954 15.9973 24.6933Z" fill="#A4ACB7"/>
</g>
</svg>
