<svg width="32" height="32" viewBox="0 0 32 32" fill="none" xmlns="http://www.w3.org/2000/svg">
<g id="fluent-mdl2:internet-sharing">
<path id="Vector" d="M14 10H16V32H14V10ZM5.8125 3.8125C5.20833 4.41667 4.67188 5.07292 4.20312 5.78125C3.73438 6.48958 3.33333 7.23958 3 8.03125C2.66667 8.82292 2.42188 9.63021 2.26562 10.4531C2.10938 11.276 2.02083 12.125 2 13C2 13.8542 2.08333 14.6979 2.25 15.5312C2.41667 16.3646 2.66667 17.1771 3 17.9688C3.33333 18.7604 3.72917 19.5052 4.1875 20.2031C4.64583 20.901 5.1875 21.5625 5.8125 22.1875L4.39062 23.6094C2.97396 22.1823 1.89062 20.5625 1.14062 18.75C0.390625 16.9375 0.0104167 15.0208 0 13C0 10.9896 0.375 9.07812 1.125 7.26562C1.875 5.45312 2.96354 3.82812 4.39062 2.39062L5.8125 3.8125ZM25.6094 2.39062C27.026 3.81771 28.1094 5.4375 28.8594 7.25C29.6094 9.0625 29.9896 10.9792 30 13C30 15.0104 29.625 16.9219 28.875 18.7344C28.125 20.5469 27.0365 22.1719 25.6094 23.6094L24.1875 22.1875C24.7917 21.5833 25.3281 20.9271 25.7969 20.2188C26.2656 19.5104 26.6667 18.7604 27 17.9688C27.3333 17.1771 27.5781 16.3698 27.7344 15.5469C27.8906 14.724 27.9792 13.875 28 13C28 12.1458 27.9167 11.3021 27.75 10.4688C27.5833 9.63542 27.3333 8.82292 27 8.03125C26.6667 7.23958 26.2708 6.49479 25.8125 5.79688C25.3542 5.09896 24.8125 4.4375 24.1875 3.8125L25.6094 2.39062ZM21.3594 6.64062C22.2031 7.48438 22.8542 8.45312 23.3125 9.54688C23.7708 10.6406 24 11.7917 24 13C24 14.1979 23.7708 15.3438 23.3125 16.4375C22.8542 17.5312 22.2031 18.5052 21.3594 19.3594L19.9531 17.9531C20.6094 17.2969 21.1094 16.5417 21.4531 15.6875C21.7969 14.8333 21.974 13.9375 21.9844 13C21.9844 12.0729 21.8125 11.1823 21.4688 10.3281C21.125 9.47396 20.6198 8.71354 19.9531 8.04688L21.3594 6.64062ZM10.0469 8.04688C9.39062 8.70312 8.88542 9.45833 8.53125 10.3125C8.17708 11.1667 8 12.0625 8 13C8 13.9271 8.17708 14.8177 8.53125 15.6719C8.88542 16.526 9.39062 17.2865 10.0469 17.9531L8.64062 19.3594C7.79688 18.5156 7.14583 17.5469 6.6875 16.4531C6.22917 15.3594 6 14.2083 6 13C6 11.8021 6.22917 10.6562 6.6875 9.5625C7.14583 8.46875 7.79688 7.49479 8.64062 6.64062L10.0469 8.04688Z" fill="#A4ACB7"/>
</g>
</svg>
