<svg width="32" height="32" viewBox="0 0 32 32" fill="none" xmlns="http://www.w3.org/2000/svg">
<g id="ion:hardware-chip-sharp">
<path id="Vector" d="M10 10H22V22H10V10Z" fill="#A4ACB7"/>
<path id="Vector_2" d="M30 12.375V9.625H28V5.5C28 5.10218 27.842 4.72064 27.5607 4.43934C27.2794 4.15804 26.8978 4 26.5 4H22.375V2H19.625V4H17.375V2H14.625V4H12.375V2H9.625V4H5.5C5.10218 4 4.72064 4.15804 4.43934 4.43934C4.15804 4.72064 4 5.10218 4 5.5V9.625H2V12.375H4V14.625H2V17.375H4V19.625H2V22.375H4V26.5C4 26.8978 4.15804 27.2794 4.43934 27.5607C4.72064 27.842 5.10218 28 5.5 28H9.625V30H12.375V28H14.625V30H17.375V28H19.625V30H22.375V28H26.5C26.8978 28 27.2794 27.842 27.5607 27.5607C27.842 27.2794 28 26.8978 28 26.5V22.375H30V19.625H28V17.375H30V14.625H28V12.375H30ZM8 8H24V24H8V8Z" fill="#A4ACB7"/>
</g>
</svg>
